#!OML:ASF I:\Actors\actors\Patient Classification 2\Patient 1\Session 1\actor1.ASF
:FULLY-SPECIFIED
:DEGREES
802
root -0.658801 18.7207 5.5753 0.40911 6.8491 -2.78127
lowerback 11.2387 1.32411 9.38173
upperback 1.44825 3.19055 5.39315
thorax -4.59351 1.45415 -0.0629624
lowerneck -4.60673 -12.25 -9.06496
upperneck 16.7968 -17.714 10.9256
head 7.71998 -8.25424 3.3582
rclavicle -1.88845e-014 -7.31528e-014
rhumerus -4.6534 -4.37994 -64.1689
rradius 58.5457
rwrist -13.1331
rhand -5.67362 -41.4631
rfingers 7.12502
rthumb 20.1461 -70.4385
lclavicle -1.88845e-014 -7.31528e-014
lhumerus -38.8349 -18.888 102.856
lradius 72.9253
lwrist 18.4668
lhand -5.45616 -28.1113
lfingers 7.12502
lthumb 20.3551 0.841933
rfemur 0 0 0
rtibia 0
rfoot 0 0
rtoes 0
lfemur -8.52079 -3.46457 -10.9706
ltibia 24.8066
lfoot -18.3051 5.89242
ltoes -57.0686
803
root -0.661202 18.7207 5.5785 0.403447 6.77408 -2.79955
lowerback 11.2424 1.32047 9.38131
upperback 1.45116 3.1856 5.39067
thorax -4.59265 1.45172 -0.0647128
lowerneck -4.64014 -12.2607 -8.98444
upperneck 16.7104 -17.7159 10.8747
head 7.68528 -8.25594 3.32937
rclavicle 2.42517e-014 -4.77083e-015
rhumerus -4.66444 -4.39731 -64.1505
rradius 58.1664
rwrist -13.345
rhand -5.38071 -42.3266
rfingers 7.12502
rthumb 20.4276 -71.2721
lclavicle 2.42517e-014 -4.77083e-015
lhumerus -38.8371 -18.8672 102.844
lradius 72.9503
lwrist 18.5223
lhand -5.5219 -28.131
lfingers 7.12502
lthumb 20.2919 0.828926
rfemur 0 0 0
rtibia 0
rfoot 0 0
rtoes 0
lfemur -8.47875 -3.43632 -10.9413
ltibia 24.7971
lfoot -18.3269 5.92939
ltoes -57.0477
804
root -0.663556 18.721 5.58112 0.407965 6.72451 -2.79702
lowerback 11.2596 1.31819 9.40705
upperback 1.43105 3.18734 5.34324
thorax -4.61925 1.45012 -0.129785
lowerneck -4.67621 -12.281 -8.88187
upperneck 16.6557 -17.7482 10.8801
head 7.66816 -8.26533 3.31079
rclavicle -6.99722e-014 -7.15625e-014
rhumerus -4.69504 -4.53941 -64.188
rradius 57.8602
rwrist -13.5008
rhand -5.14077 -43.2484
rfingers 7.12502
rthumb 20.6582 -72.169
lclavicle -6.99722e-014 -7.15625e-014
lhumerus -38.865 -18.9417 102.796
lradius 72.9645
lwrist 18.5785
lhand -5.54143 -28.2361
lfingers 7.12502
lthumb 20.2731 0.725841
rfemur 0 0 0
rtibia 0
rfoot 0 0
rtoes 0
lfemur -8.45518 -3.4577 -10.9392
ltibia 24.7834
lfoot -18.3746 5.99603
ltoes -57.1029
805
root -0.66571 18.7207 5.58298 0.411587 6.66261 -2.78512
lowerback 11.2959 1.31432 9.41764
upperback 1.40021 3.18908 5.2996
thorax -4.66902 1.44768 -0.183301
lowerneck -4.61347 -12.2802 -8.86531
upperneck 16.5078 -17.754 10.9736
head 7.61672 -8.26785 3.34336
rclavicle 8.34896e-015 -1.27222e-014
rhumerus -4.66888 -4.68998 -64.2386
rradius 57.5774
rwrist -13.5117
rhand -4.79624 -44.3043
rfingers 7.12502
rthumb 20.9892 -73.1885
lclavicle 8.34896e-015 -1.27222e-014
lhumerus -38.9075 -18.9855 102.765
lradius 72.9643
lwrist 18.5802
lhand -5.48926 -28.3453
lfingers 7.12502
lthumb 20.3233 0.611348
rfemur 0 0 0
rtibia 0
rfoot 0 0
rtoes 0
lfemur -8.42486 -3.48952 -10.9508
ltibia 24.7652
lfoot -18.4225 6.07138
ltoes -57.1828
806
root -0.667451 18.7205 5.58433 0.433063 6.59531 -2.76112
lowerback 11.2858 1.30585 9.38506
upperback 1.38181 3.17341 5.28461
thorax -4.68486 1.4394 -0.178933
lowerneck -4.47418 -12.2654 -9.0507
upperneck 16.3099 -17.75 11.2309
head 7.56905 -8.27005 3.46308
rclavicle -4.57205e-015 7.4743e-014
rhumerus -4.55853 -4.67703 -64.1938
rradius 57.3669
rwrist -13.5831
rhand -4.41175 -45.3642
rfingers 7.12502
rthumb 21.3585 -74.2071
lclavicle -4.57205e-015 7.4743e-014
lhumerus -38.9561 -18.9644 102.779
lradius 72.9797
lwrist 18.5705
lhand -5.45612 -28.3746
lfingers 7.12502
lthumb 20.3551 0.578685
rfemur 0 0 0
rtibia 0
rfoot 0 0
rtoes 0
lfemur -8.41046 -3.52162 -10.9774
ltibia 24.7519
lfoot -18.428 6.14532
ltoes -57.1701
807
root -0.668442 18.7208 5.58564 0.479157 6.54972 -2.73076
lowerback 11.2226 1.28661 9.33933
upperback 1.37615 3.13348 5.27208
thorax -4.65994 1.42138 -0.159539
lowerneck -4.42609 -12.2737 -9.24722
upperneck 16.1677 -17.7728 11.4584
head 7.55699 -8.28238 3.56471
rclavicle -1.86858e-014 -2.70347e-014
rhumerus -4.35579 -4.612 -64.1154
rradius 57.2204
rwrist -13.7713
rhand -4.12903 -46.2823
rfingers 7.12502
rthumb 21.63 -75.0942
lclavicle -1.86858e-014 -2.70347e-014
lhumerus -38.9778 -18.9475 102.799
lradius 73.0031
lwrist 18.5962
lhand -5.45888 -28.2362
lfingers 7.12502
lthumb 20.3525 0.717285
rfemur 0 0 0
rtibia 0
rfoot 0 0
rtoes 0
lfemur -8.43382 -3.51036 -11.0063
ltibia 24.7442
lfoot -18.4232 6.14886
ltoes -57.081
808
root -0.66882 18.7207 5.58675 0.496467 6.50403 -2.72646
lowerback 11.1881 1.26316 9.31519
upperback 1.38028 3.09346 5.25705
thorax -4.63932 1.40289 -0.155407
lowerneck -4.51505 -12.3067 -9.1629
upperneck 16.0557 -17.796 11.387
head 7.52393 -8.29416 3.52266
rclavicle 6.52014e-014 -5.24792e-014
rhumerus -4.09677 -4.5972 -64.041
rradius 57.136
rwrist -13.9638
rhand -3.86813 -47.313
rfingers 7.12502
rthumb 21.8806 -76.0959
lclavicle 6.52014e-014 -5.24792e-014
lhumerus -38.9207 -18.9582 102.807
lradius 72.9863
lwrist 18.6572
lhand -5.39074 -27.9707
lfingers 7.12502
lthumb 20.4179 0.975846
rfemur 0 0 0
rtibia 0
rfoot 0 0
rtoes 0
lfemur -8.4342 -3.40965 -11.0042
ltibia 24.732
lfoot -18.4074 6.12457
ltoes -57.0994
809
root -0.669883 18.72 5.58814 0.481134 6.43459 -2.72642
lowerback 11.1558 1.25744 9.28014
upperback 1.40953 3.07331 5.2427
thorax -4.5924 1.39587 -0.147204
lowerneck -4.5918 -12.3435 -9.07616
upperneck 15.9325 -17.8267 11.3307
head 7.48711 -8.30915 3.48513
rclavicle -3.26007e-014 -1.74931e-014
rhumerus -3.74585 -4.6303 -63.9235
rradius 57.0677
rwrist -14.0231
rhand -3.67935 -48.5792
rfingers 7.12502
rthumb 22.0618 -77.3407
lclavicle -3.26007e-014 -1.74931e-014
lhumerus -38.7919 -18.9647 102.824
lradius 72.9057
lwrist 18.6786
lhand -5.2375 -27.8289
lfingers 7.12502
lthumb 20.5652 1.10178
rfemur 0 0 0
rtibia 0
rfoot 0 0
rtoes 0
lfemur -8.38765 -3.36839 -11.0042
ltibia 24.7207
lfoot -18.3993 6.17692
ltoes -57.1755
810
root -0.672029 18.7194 5.59029 0.474779 6.36726 -2.70384
lowerback 11.0867 1.2573 9.21117
upperback 1.43849 3.051 5.21777
thorax -4.5265 1.38901 -0.13018
lowerneck -4.591 -12.371 -9.21083
upperneck 15.8392 -17.8729 11.4966
head 7.4905 -8.32999 3.55155
rclavicle 1.19271e-015 1.11319e-014
rhumerus -3.26288 -4.64642 -63.7604
rradius 56.9233
rwrist -13.9863
rhand -3.50115 -49.6434
rfingers 7.12502
rthumb 22.2329 -78.3847
lclavicle 1.19271e-015 1.11319e-014
lhumerus -38.7072 -18.9484 102.847
lradius 72.8302
lwrist 18.6215
lhand -5.23373 -27.8866
lfingers 7.12502
lthumb 20.5688 1.04374
rfemur 0 0 0
rtibia 0
rfoot 0 0
rtoes 0
lfemur -8.3438 -3.42685 -11.0284
ltibia 24.7195
lfoot -18.4356 6.24597
ltoes -57.1347
811
root -0.674661 18.7191 5.59202 0.478472 6.3161 -2.71277
lowerback 11.032 1.23887 9.14198
upperback 1.42622 3.01154 5.20605
thorax -4.51441 1.37097 -0.0976175
lowerneck -4.55143 -12.3935 -9.43015
upperneck 15.8023 -17.9258 11.728
head 7.52072 -8.35381 3.65154
rclavicle 1.39149e-015 -2.06736e-014
rhumerus -2.72854 -4.46188 -63.5254
rradius 56.7169
rwrist -13.7923
rhand -3.44894 -49.7799
rfingers 7.12502
rthumb 22.2831 -78.5151
lclavicle 1.39149e-015 -2.06736e-014
lhumerus -38.716 -18.9008 102.879
lradius 72.802
lwrist 18.5579
lhand -5.33144 -27.9808
lfingers 7.12502
lthumb 20.4749 0.959619
rfemur 0 0 0
rtibia 0
rfoot 0 0
rtoes 0
lfemur -8.32967 -3.3561 -11.0018
ltibia 24.7164
lfoot -18.451 6.21762
ltoes -57.0715
812
root -0.677969 18.7192 5.59317 0.48291 6.25688 -2.78749
lowerback 11.0203 1.19946 9.09747
upperback 1.36634 2.95874 5.20863
thorax -4.57744 1.34232 -0.0634097
lowerneck -4.49662 -12.4092 -9.54385
upperneck 15.7982 -17.9693 11.8756
head 7.53996 -8.37314 3.71213
rclavicle -3.37934e-014 -1.11319e-014
rhumerus -2.20375 -4.03007 -63.2638
rradius 56.4793
rwrist -13.1034
rhand -3.82166 -48.8154
rfingers 7.12502
rthumb 21.9252 -77.593
lclavicle -3.37934e-014 -1.11319e-014
lhumerus -38.8122 -18.8322 102.891
lradius 72.8235
lwrist 18.5434
lhand -5.33371 -28.0197
lfingers 7.12502
lthumb 20.4728 0.920956
rfemur 0 0 0
rtibia 0
rfoot 0 0
rtoes 0
lfemur -8.32712 -3.17286 -10.8924
ltibia 24.7024
lfoot -18.4375 6.12111
ltoes -57.0546
813
root -0.681588 18.7193 5.59439 0.497772 6.17903 -2.8326
lowerback 11.0238 1.15928 9.03134
upperback 1.28528 2.90448 5.17711
thorax -4.67054 1.31152 -0.0535607
lowerneck -4.43211 -12.4179 -9.54193
upperneck 15.7958 -18.0031 11.9569
head 7.53957 -8.3867 3.73743
rclavicle 5.36719e-015 4.92986e-014
rhumerus -1.57547 -3.82274 -62.9929
rradius 56.6509
rwrist -13.528
rhand -3.60073 -50.8019
rfingers 7.12502
rthumb 22.1373 -79.5545
lclavicle 5.36719e-015 4.92986e-014
lhumerus -38.9521 -18.763 102.879
lradius 72.8657
lwrist 18.5415
lhand -5.29673 -27.9638
lfingers 7.12502
lthumb 20.5083 0.972985
rfemur 0 0 0
rtibia 0
rfoot 0 0
rtoes 0
lfemur -8.31641 -3.11557 -10.8289
ltibia 24.6828
lfoot -18.4507 6.12749
ltoes -57.0137
